<mxfile host="app.diagrams.net" modified="2024-07-13T04:40:14.185Z" agent="Mozilla/5.0 (Macintosh; Intel Mac OS X 10_15_7) AppleWebKit/537.36 (KHTML, like Gecko) Chrome/126.0.0.0 Safari/537.36" version="24.6.4" etag="LQ5UgJEWkmUrjMk_ADbs" type="github">
  <diagram name="페이지-1" id="_JDMPTgqkiR1PAO012sX">
    <mxGraphModel>
      <root>
        <mxCell id="0" />
        <mxCell id="1" parent="0" />
      </root>
    </mxGraphModel>
  </diagram>
</mxfile>
